<svg width="250" height="80" viewBox="0 0 250 80" fill="none" xmlns="http://www.w3.org/2000/svg">
  <path d="M40 40C40 17.909 57.909 0 80 0H170C192.091 0 210 17.909 210 40C210 62.091 192.091 80 170 80H80C57.909 80 40 62.091 40 40Z" fill="white"/>
  <path d="M65.5 40C65.5 31.716 72.216 25 80.5 25H169.5C177.784 25 184.5 31.716 184.5 40C184.5 48.284 177.784 55 169.5 55H80.5C72.216 55 65.5 48.284 65.5 40Z" fill="white"/>
  <path d="M80 30C80 30 100 50 125 30C150 10 170 30 170 30" stroke="#8B4513" stroke-width="3" stroke-linecap="round"/>
  <text x="125" y="65" font-family="Arial" font-size="12" fill="#8B4513" text-anchor="middle">CAROLINE MEZA</text>
</svg>
