<svg width="40" height="40" viewBox="0 0 40 40" fill="none" xmlns="http://www.w3.org/2000/svg">
  <path d="M20 5C16.5 5 13.75 7.5 13.75 10C13.75 12.5 15 15 13.75 17.5C12.5 20 10 22.5 10 25C10 27.5 11.25 32.5 15 35C18.75 37.5 21.25 37.5 25 35C28.75 32.5 30 27.5 30 25C30 22.5 27.5 20 26.25 17.5C25 15 26.25 12.5 26.25 10C26.25 7.5 23.5 5 20 5Z" stroke="white" stroke-width="2" stroke-linecap="round" stroke-linejoin="round"/>
  <path d="M20 5C18.75 7.5 17.5 10 20 12.5C22.5 15 21.25 17.5 20 20C18.75 22.5 17.5 25 20 27.5C22.5 30 21.25 32.5 20 35" stroke="white" stroke-width="2" stroke-linecap="round" stroke-linejoin="round"/>
</svg>
